<?xml version="1.0" encoding="utf-8"?>
<!-- Generator: Adobe Illustrator 26.3.1, SVG Export Plug-In . SVG Version: 6.00 Build 0)  -->
<svg version="1.1" id="Layer_1" xmlns="http://www.w3.org/2000/svg" xmlns:xlink="http://www.w3.org/1999/xlink" x="0px" y="0px"
	 viewBox="0 0 990 513.63" style="enable-background:new 0 0 990 513.63;" xml:space="preserve">
<style type="text/css">
	.st0{fill:#F9D02D;}
	.st1{fill:#010101;}
</style>
<g>
	<path class="st0" d="M607.63,156.62h10.65l-3.01,0.74c10.02,1.25,19.69,6.96,24.46,16.04c-3.02-1.3-5.82-3.03-8.96-3.98
		c-11.96-2.3-23.99,1.84-34.33,7.65c-16.25,9.26-30.05,22.75-39.97,38.58c-6.46,10.46-11.62,22.46-10.62,35.01
		c-0.18,5.42,2.34,10.68,6.35,14.26c4.37,4,10.58,5.08,16.3,5.07c14.99-1.43,28.65-8.99,40.25-18.23
		c11.4-9.43,21.44-20.73,28.5-33.78c0.69-0.05,2.07-0.16,2.75-0.22c-10,22.96-28.48,42.38-51.63,52.23
		c-10.89,4.73-23.13,6.64-34.85,4.33c-10.56-2.25-19.83-9.97-23.54-20.17c-2.5-7-3.62-14.66-2.29-22.04
		c2.46-19.15,13.12-36.37,26.49-49.91C568.64,168.33,587.25,157.61,607.63,156.62z"/>
	<path class="st0" d="M610.26,185.26c6.79-2.29,14.91-3.85,21.36,0.22c1.46,0.73,1.71,2.18,1.42,3.66c-0.65-2.86-3.66-1.85-5.6-1.71
		c-14.28,2.48-25.95,12.31-35.27,22.87c-6.38,7.58-12.17,16.28-13.91,26.2c-1.11,4.93,1.37,11.35,6.78,12.32
		c7.28,1.36,14.19-2.25,20.33-5.71c12.13-7.47,21.86-18.35,29.36-30.38c0.28-1.17,0.66-2.32,1.21-3.4c0.01,1.13,0,2.26-0.01,3.39
		c-2.6,5.35-5.06,10.82-8.75,15.53c-9,11.53-20.47,21.76-34.57,26.42c-5.08,1.46-10.56,2.39-15.75,0.97
		c-5.76-1.63-10.23-7.03-10.65-13.02c-1.07-10.5,3.73-20.46,9.32-29.01C584.21,201.27,595.98,190.59,610.26,185.26z"/>
	<path class="st0" d="M621.39,197.31c3.03-1.08,6.22-1.18,9.23,0.07c-7.71,2.98-14.36,8.96-17.68,16.57
		c-0.93,2.2-1.77,5.46,0.72,6.93c2.53,0.84,5.21-0.18,7.4-1.47c4.44-2.43,7.96-6.13,11.27-9.9c-2.16,7.53-7.45,13.69-12.86,19.14
		c-6.7,5.84-14.65,11.94-24.02,11.49c-1.96-1.36-4.65-2.73-4.53-5.51c0.1-5.79,1.97-11.56,5.48-16.21
		C602.56,209.3,611.04,201.39,621.39,197.31z"/>
</g>
<g>
	<path class="st1" d="M38.53,162.89c28.26,0,56.52,0,84.78-0.01c0.01,4.31,0.05,8.62-0.09,12.93c-23-0.05-46-0.01-69.01-0.02
		c-0.03,10.88-0.02,21.75,0,32.63c21.57,0,43.15,0,64.72,0c0.02,4.26,0.01,8.51,0.01,12.77c-21.58,0.02-43.15,0-64.73,0.01
		c-0.01,12.2-0.04,24.4,0.01,36.6c23.97-0.01,47.94-0.04,71.9,0.01c-0.02,4.21-0.01,8.43-0.02,12.64c-29.19,0-58.38,0-87.57,0
		V162.89z"/>
	<path class="st1" d="M159.75,162.92c5.25-0.07,10.49-0.02,15.74-0.06c1.29,0.15,3.05-0.4,3.72,1.12
		c9.93,13.17,20.46,25.9,29.84,39.48c7.17-10.41,15.75-19.74,23.63-29.61c3.1-3.58,5.89-7.43,9.15-10.86
		c5.61-0.26,11.24-0.07,16.85-0.05c-13.59,16.96-27.38,33.76-41.02,50.68c14.73,18.95,29.4,37.94,44.3,56.75
		c-6.49,0.16-12.99,0.09-19.48,0.04c-11.28-14.96-23.04-29.57-34.02-44.74c-2.55,1.26-3.4,4.54-5.31,6.57
		c-9.93,12.71-19.77,25.5-29.89,38.05c-6.21,0.4-12.45,0.05-18.67,0.15c14.83-18.8,30.12-37.24,45.03-55.98
		C186.43,197.21,173.02,180.11,159.75,162.92z"/>
	<g>
		<path class="st1" d="M294.3,162.98c17.07-0.14,34.14-0.18,51.2,0.03c10.11,0.21,21.17,1.56,29,8.59
			c11.71,10.69,12.52,30.44,2.68,42.62c-3.34,4.52-8.21,7.72-13.52,9.45c-8.74,2.88-18.06,3.28-27.18,3.16c-8.83,0-17.66,0-26.49,0
			c0.02,14.54,0,29.08,0.01,43.62c-5.22,0-10.44,0.03-15.66-0.04C294.3,234.6,294.38,198.79,294.3,162.98z M309.98,175.8
			c0.04,12.75-0.01,25.5,0.03,38.25c11.15-0.04,22.3,0.08,33.45-0.05c6.06-0.4,12.56-1.09,17.62-4.77
			c9.15-6.8,9.06-22.34,0.07-29.25c-4.28-3.71-10.18-4.09-15.59-4.15C333.7,175.74,321.84,175.8,309.98,175.8z"/>
	</g>
	<path class="st1" d="M421.89,162.88c5.16,0.01,10.31,0.01,15.46,0c-0.06,31.48,0.1,62.96-0.08,94.44c1.39,0.28,2.8,0.52,4.23,0.49
		c17.89-0.06,35.78-0.01,53.68-0.03c-0.02,4.22-0.02,8.44,0,12.66c-24.43,0.02-48.86,0.01-73.29,0
		C421.9,234.59,421.9,198.74,421.89,162.88z"/>
	<g>
		<path class="st1" d="M678.96,162.89c17.19-0.01,34.38,0,51.57,0c8.55,0.1,17.37,0.22,25.45,3.35
			c11.66,4.63,18.41,18.09,16.4,30.27c-0.93,7.41-5.44,14.15-11.64,18.23c-6.11,4.07-13.41,5.81-20.57,6.82
			c9.2,3.98,16.04,11.63,21.73,19.64c6.79,9.73,13.53,19.48,20.34,29.19c-6.58,0.11-13.16,0.08-19.74,0.02
			c-7.04-10.19-13.96-20.46-21.28-30.45c-5.36-7.1-11.34-15.2-20.73-16.75c-8.66-0.72-17.37-0.28-26.05-0.35
			c-0.07,4.6,0.54,9.19,0.04,13.78c0.3,4.66,0.2,9.32-0.02,13.98c0.24,1.99,0.25,4.01,0.03,6.01c-0.2,4.61,0.28,9.22-0.13,13.83
			c-5.13-0.03-10.27,0.01-15.4-0.02C678.98,234.59,678.99,198.74,678.96,162.89z M694.72,175.04c-0.67,7.72,0.34,15.74-0.17,23.58
			c0.14,3.89,0.11,7.78,0.11,11.67c11.61-0.01,23.23,0,34.84,0c5.48-0.01,11.06-0.49,16.22-2.44c5.18-2.01,9.37-6.62,10.48-12.11
			c1.64-6.35-1.42-13.41-6.91-16.89c-5.25-3.31-11.68-3.97-17.75-3.92C719.26,175.02,706.98,174.8,694.72,175.04z"/>
	</g>
	<path class="st1" d="M816.1,162.88c28.29,0.02,56.58-0.01,84.88,0.02c-0.03,4.3,0.01,8.6-0.04,12.9
		c-23.04-0.01-46.08-0.04-69.12,0.01c0.04,10.87-0.01,21.74,0.03,32.61c21.5,0,43.01-0.01,64.51,0.01
		c0.06,4.26,0.04,8.52,0.04,12.77c-21.52-0.02-43.04,0.01-64.55-0.01c0.01,12.2-0.09,24.4,0.05,36.61
		c23.97,0.05,47.95-0.16,71.93,0.1c-0.11,4.14-0.1,8.29-0.01,12.43c-29.24,0.27-58.49,0.06-87.73,0.11
		C816.11,234.59,816.08,198.74,816.1,162.88z"/>
	<g>
		<path class="st1" d="M934.95,163.22c4.15-0.94,8.82,0.08,11.76,3.29c3.89,3.49,3.7,9.4,2.41,14.04
			c-3.43,8.02-15.66,9.41-20.78,2.33C922.7,176.36,926.53,165.04,934.95,163.22z M932.97,166.37c-2.55,1.58-4.62,4.18-5.01,7.21
			c-1.11,5.74,3.73,11.64,9.55,11.76c5.71,0.45,11.1-4.87,10.62-10.61C948.14,167.51,939.12,162.4,932.97,166.37z"/>
	</g>
	<g>
		<path class="st1" d="M932.83,168.05c2.88,0.39,6.71-1.11,8.84,1.48c1.28,2.22,0.4,4.98-1.65,6.38c0.36,2.2,2.29,4.14,3.25,6.27
			c-0.53,0.04-1.59,0.13-2.12,0.17c-1.62-2.63-2.53-6.89-6.45-6.55c-0.08,2.11-0.07,4.22-0.02,6.33c-0.47,0.06-1.41,0.17-1.88,0.23
			C932.81,177.59,932.8,172.82,932.83,168.05z M934.2,170.01c0.18,1.44,0.36,2.88,0.57,4.31c1.74-0.08,3.51-0.16,5.28-0.29
			c0.18-1.33,0.22-2.68,0.1-4.02C938.16,169.79,936.17,169.73,934.2,170.01z"/>
	</g>
	<path class="st1" d="M865,305.37c9.35-0.98,19.53-0.51,27.6,4.87c3.42,2.13,5.73,5.51,7.73,8.92c-2.98,1-6.13,1.34-9.22,1.81
		c-2.65-4.73-6.87-8.74-12.41-9.64c-8.74-1.38-19-0.77-25.57,5.91c-6.15,7.37-6.11,19.37,0.03,26.74
		c5.68,5.93,14.58,7.09,22.39,6.29c7.09-0.6,14.38-5,16.24-12.23c3.2,0.4,6.36,1.06,9.56,1.5c-3.03,9.7-13.09,15.5-22.81,16.17
		c-9.61,0.62-20.17,0.86-28.58-4.58c-11.36-6.93-14.86-24.02-6.76-34.68C848.27,309.59,856.88,306.63,865,305.37z"/>
	<path class="st1" d="M47.93,309.83c4.57-3.19,10.23-4.27,15.68-4.73c7.87-0.38,16.2-0.05,23.29,3.75
		c4.14,2.18,7.25,6.28,7.61,11.03c-3.02,0.14-6.03,0.28-9.05,0.41c-0.99-6.05-7.23-9.03-12.81-9.24c-6.43-0.2-13.93-0.91-19.12,3.67
		c-3.05,2.66-1.09,7.54,2.52,8.46c9.84,3.4,20.55,3.2,30.37,6.73c3.78,1.4,7.53,3.74,9.33,7.5c1.42,3.77,0.69,8.38-2.24,11.25
		c-5.07,5.45-12.87,7.09-20.03,7.28c-8.21,0.1-16.95,0.29-24.39-3.73c-4.86-2.51-8.64-7.26-9.04-12.84c2.97-0.14,5.93-0.3,8.89-0.47
		c0.95,3.3,2.65,6.65,5.92,8.17c7.57,3.79,16.62,3.97,24.74,2.04c3.5-0.91,7.9-3.32,7.74-7.48c-0.12-3.54-3.8-5.28-6.73-6.21
		c-8.9-2.53-18.27-2.96-27.12-5.73c-4.14-1.39-8.46-3.83-10.12-8.1C41.76,317.17,44.27,312.35,47.93,309.83z"/>
	<path class="st1" d="M146.09,317.13c5.31-7.6,14.71-10.88,23.57-11.89c8.98-0.77,18.71-0.18,26.39,5.06
		c3.2,2.35,6.34,5.37,7.29,9.37c-3.01,0.33-6,0.76-8.96,1.38c-2.47-5.34-7.57-9.22-13.45-9.94c-6.79-0.74-14.13-0.62-20.22,2.88
		c-12.15,6.7-11.71,27.56,0.78,33.68c6.47,3.19,14.07,3.45,21.03,1.96c5.95-1.41,11.01-5.76,12.85-11.66c3.06,0.5,6.1,1.1,9.18,1.54
		c-2.62,9.58-12.65,15.29-22.05,16.15c-9.91,0.73-20.8,0.97-29.44-4.7C142.21,344,138.62,327.77,146.09,317.13z"/>
	<path class="st1" d="M253.33,305.94c3.17-0.15,6.34-0.13,9.51-0.1c0.05,16.5,0.01,33,0.02,49.49c-3.17,0.04-6.33,0.04-9.5-0.03
		C253.33,338.85,253.39,322.39,253.33,305.94z"/>
	<path class="st1" d="M315.14,305.8c17.05,0.06,34.09,0.01,51.14,0.02c-0.02,1.99-0.03,3.98-0.04,5.97
		c-13.85,0.05-27.71-0.03-41.56,0.04c0.08,5.02-0.08,10.04,0.12,15.06c12.99-0.03,25.98-0.14,38.97,0.05
		c-0.03,2-0.13,4.01-0.56,5.97c-12.84-0.18-25.68-0.02-38.52-0.08c0.02,5.51,0.01,11.03,0.01,16.54c14.41-0.02,28.83-0.01,43.24,0
		c0,2,0,4-0.01,6.01c-17.62-0.07-35.23,0.02-52.85-0.05C315.16,338.82,315.05,322.31,315.14,305.8z"/>
	<path class="st1" d="M463.03,305.87c3.01-0.06,6.03-0.04,9.06-0.05c-0.04,16.52,0.04,33.04-0.04,49.56
		c-3.29-0.22-6.76,0.39-9.94-0.3c-12.33-12.75-24.47-25.7-36.78-38.49c-0.07,12.92-0.04,25.83-0.02,38.75
		c-3.02,0.02-6.03,0.03-9.05-0.03c0.03-16.48,0.03-32.97,0-49.46c3.35,0.18,6.85-0.49,10.11,0.36
		c12.3,12.68,24.34,25.61,36.63,38.29C463.08,331.62,463.03,318.75,463.03,305.87z"/>
	<path class="st1" d="M518.06,305.82c18.7,0.01,37.41,0.01,56.12,0c-0.04,2-0.06,4.01-0.1,6.01c-7.77-0.07-15.53,0.01-23.29-0.03
		c0.04,14.49-0.03,28.98,0.04,43.48c-3.18,0.1-6.35,0.09-9.53,0.04c0.04-14.5,0.01-29,0.02-43.5c-7.75-0.04-15.5-0.01-23.25-0.02
		C518.06,309.8,518.05,307.81,518.06,305.82z"/>
	<path class="st1" d="M620.9,305.82c3.14,0.01,6.27,0.01,9.41,0.01c-0.03,16.5-0.01,33.01-0.01,49.52c-3.13,0.01-6.27,0.01-9.4-0.01
		C620.93,338.83,620.93,322.33,620.9,305.82z"/>
	<path class="st1" d="M682.9,305.83c15.96,0.04,31.91-0.1,47.87,0.07c0,1.82,0.03,3.64,0.08,5.46c-12.8,1.06-25.74,0.05-38.59,0.52
		c0.04,5.04,0.02,10.07,0.01,15.1c11.02,0.05,22.04,0.02,33.06,0.02c0.03,1.22,0.06,2.45,0.11,3.68c-0.05,0.59-0.16,1.77-0.21,2.36
		c-10.99-0.05-21.97-0.06-32.96,0c0.03,7.44-0.01,14.87,0.02,22.3c-3.13,0.01-6.26,0.01-9.38,0.03
		C682.89,338.86,682.91,322.34,682.9,305.83z"/>
	<path class="st1" d="M779.94,305.84c3.12-0.01,6.26-0.01,9.39-0.02c0.01,16.51-0.02,33.02,0.02,49.53c-3.14,0.01-6.28,0-9.41-0.01
		C779.96,338.84,779.97,322.34,779.94,305.84z"/>
</g>
</svg>
